<?xml version="1.0" encoding="UTF-8"?>
<svg id="JUMO_Logo_blau" data-name="JUMO Logo blau" xmlns="http://www.w3.org/2000/svg" viewBox="0 0 843.04 293.58">
  <defs>
    <style>
      .cls-1 {
        stroke: #fff;
        stroke-width: 14.17px;
      }

      .cls-1, .cls-2 {
        fill: #fff;
        stroke-miterlimit: 10;
      }

      .cls-3 {
        fill: #004489;
        fill-rule: evenodd;
      }

      .cls-2 {
        stroke: #004489;
        stroke-width: 13.93px;
      }
    </style>
  </defs>
  <rect class="cls-1" x="7.08" y="7.08" width="828.87" height="279.41" rx="138.4" ry="138.4"/>
  <rect class="cls-2" x="11.19" y="10.49" width="820.66" height="272.59" rx="136.02" ry="136.02"/>
  <path class="cls-3" d="m204.48,67.89l-.22,118.63c.22,23.85-23.54,39.26-44.57,40.94-9.88.63-15.33.63-25.64-.21-14.92-.84-36.37-13.51-47.51-25.12v-63.76s15.98,13.3,17.45,14.99c3.15,1.9,10.93,8.23,16.62,10.57,4.2,2.1,7.36,2.74,11.56,2.31,6.93.22,9.25-4.22,9.25-12.46v-85.49l63.07-.41h0Z"/>
  <path class="cls-3" d="m284.78,68.3s.21,64.81,0,94.78c0,15.41,36.8,14.78,36.17-.22l.21-94.98,59.28.21.2,108.28c-.41,54.05-55.82,50.8-57.16,50.81-8.31.05-16.2.09-23.78.1s-14.32-.01-21.11-.1c-3.68-.05-53.51,5.13-53.94-50.38-.41-40.11,0-108.91,0-108.91l60.14.41h0Z"/>
  <path class="cls-3" d="m452.97,68.09s25.24,38.2,37.42,57.84c.63.21,38.46-56.57,39.3-58.04h50.25v158.53l-60.34-.22v-46.65l-29.01,47.49h0c-.63-.63-29-47.92-29-47.92,0,0,.62,33.99.2,47.07-17.23.22-59.71,0-59.71,0V68.09h50.88Z"/>
  <path class="cls-3" d="m680.42,64.48c81.57,0,76.31,50.03,76.31,82.75,0,44.53,6.73,82.54-77.78,82.54-84.95.21-78.63-40.75-78.84-79.59-.21-41.78-4.42-85.69,80.31-85.69h0Zm-19.55,82.53c0,13.94-1.68,37.58,18.5,37.58,21.45,0,18.91-21.1,18.91-38,0-17.73,2.96-38.42-19.33-38.42-20.18,0-18.08,27.02-18.08,38.84h0Z"/>
</svg>